<?xml version="1.0" encoding="UTF-8" standalone="no"?>
<svg
   width="248.62"
   height="41.111"
   viewBox="0 0 248.62 41.111"
   version="1.1"
   id="svg1"
   sodipodi:docname="logo.svg"
   inkscape:version="1.3 (0e150ed6c4, 2023-07-21)"
   xmlns:inkscape="http://www.inkscape.org/namespaces/inkscape"
   xmlns:sodipodi="http://sodipodi.sourceforge.net/DTD/sodipodi-0.dtd"
   xmlns="http://www.w3.org/2000/svg"
   xmlns:svg="http://www.w3.org/2000/svg">
  <sodipodi:namedview
     id="namedview1"
     pagecolor="#0cc"
     bordercolor="#111111"
     borderopacity="1"
     inkscape:showpageshadow="0"
     inkscape:pageopacity="0"
     inkscape:pagecheckerboard="1"
     inkscape:deskcolor="#d1d1d1"
     inkscape:zoom="5.1926636"
     inkscape:cx="124.31"
     inkscape:cy="20.509705"
     inkscape:window-width="1920"
     inkscape:window-height="1009"
     inkscape:window-x="1912"
     inkscape:window-y="-8"
     inkscape:window-maximized="1"
     inkscape:current-layer="svg1" />
  <defs
     id="defs1">
    <clipPath
       id="clip-path">
      <rect
         id="Rectangle_11310"
         data-name="Rectangle 11310"
         width="248.62"
         height="41.111"
         fill="none" />
    </clipPath>
  </defs>
  <g
     id="Siemens_logo"
     data-name="Siemens logo"
     transform="translate(-1 0)"
     style="fill:#0cc">
    <g
       id="Group_17602"
       data-name="Group 17602"
       transform="translate(1 0)"
       clip-path="url(#clip-path)"
       style="fill:#0cc">
      <path
         id="Path_7486"
         data-name="Path 7486"
         d="M.767,39.668V31.842a36.726,36.726,0,0,0,11.3,2.1q6.786,0,6.786-3.752a3.134,3.134,0,0,0-.988-2.35,20.076,20.076,0,0,0-5.182-2.8Q5.208,21.83,2.938,19.56A10.349,10.349,0,0,1,0,12,10.342,10.342,0,0,1,4.28,3.05Q8.511,0,15.3,0A59.017,59.017,0,0,1,26.14,1.443V8.97a25.557,25.557,0,0,0-9.8-2.2q-6.373,0-6.37,3.663a2.6,2.6,0,0,0,1.284,2.239q1.069.7,5.884,2.967,6.926,3.221,9.227,5.6a10.084,10.084,0,0,1,2.73,7.306,10.931,10.931,0,0,1-5.351,9.823q-4.333,2.746-11.237,2.74A49.388,49.388,0,0,1,.767,39.668"
         transform="translate(0 0.001)"
         fill="#fff"
         style="fill:#0cc" />
      <rect
         id="Rectangle_11309"
         data-name="Rectangle 11309"
         width="10.577"
         height="39.621"
         transform="translate(35.071 0.689)"
         fill="#fff"
         style="fill:#0cc" />
      <path
         id="Path_7487"
         data-name="Path 7487"
         d="M21.287.265V39.886H48.85V32.318H31.479v-9.4H46.219V16.377H31.479V7.431H48.413V.265Z"
         transform="translate(34.06 0.424)"
         fill="#fff"
         style="fill:#0cc" />
      <path
         id="Path_7488"
         data-name="Path 7488"
         d="M34.544,39.886V.265H48.256l9.526,25.316L67.548.265H80.574V39.886H70.546V11.832l-11.1,28.457H52.887L42,11.832V39.886Z"
         transform="translate(55.27 0.424)"
         fill="#fff"
         style="fill:#0cc" />
      <path
         id="Path_7489"
         data-name="Path 7489"
         d="M55.979.265V39.886H83.544V32.318H66.174v-9.4H80.913V16.377H66.174V7.431H83.1V.265Z"
         transform="translate(89.567 0.424)"
         fill="#fff"
         style="fill:#0cc" />
      <path
         id="Path_7490"
         data-name="Path 7490"
         d="M69.257,39.886V.265H81.516l13,26.523V.265h7.452V39.886H90.06L76.709,13V39.886Z"
         transform="translate(110.812 0.424)"
         fill="#fff"
         style="fill:#0cc" />
      <path
         id="Path_7491"
         data-name="Path 7491"
         d="M85.2,31.845v7.826a49.36,49.36,0,0,0,11.747,1.44q6.9,0,11.263-2.74a10.945,10.945,0,0,0,5.322-9.825,10.082,10.082,0,0,0-2.73-7.306q-2.321-2.379-9.2-5.6-4.895-2.293-5.912-2.967a2.61,2.61,0,0,1-1.279-2.239q0-3.67,6.341-3.666a25.574,25.574,0,0,1,9.823,2.2V1.443l-.936-.169A50.332,50.332,0,0,0,99.737,0q-6.8,0-11.024,3.05a10.31,10.31,0,0,0-4.28,8.928,10.327,10.327,0,0,0,2.935,7.584q2.289,2.293,9.747,5.483a20.044,20.044,0,0,1,5.205,2.8,3.178,3.178,0,0,1,.959,2.35q0,3.752-6.783,3.752a36.355,36.355,0,0,1-11.3-2.1"
         transform="translate(135.093 0.001)"
         fill="#fff"
         style="fill:#0cc" />
    </g>
  </g>
</svg>
