<?xml version="1.0" encoding="UTF-8"?><svg id="Layer_1" xmlns="http://www.w3.org/2000/svg" viewBox="0 0 64 64"><defs><style>.cls-1{fill:#fff;}.cls-2{fill:#004c2e;}.cls-3{fill:#009b99;}</style></defs><rect class="cls-3" x="0" y="8" width="56" height="56"/><rect class="cls-2" x="8" width="56" height="56"/><g><path class="cls-1" d="m29.01,26.7h-5.44v18.3h-4.46v-18.3h-5.35v-3.7h15.24v3.7Z"/><path class="cls-1" d="m35.92,41.75c1.24,0,1.87-.81,1.89-2.42h4.02c-.02,1.78-.57,3.22-1.65,4.32-1.08,1.1-2.47,1.65-4.17,1.65-2.11,0-3.71-.65-4.82-1.96-1.11-1.31-1.67-3.24-1.69-5.79v-1.3c0-2.57.55-4.53,1.64-5.88s2.71-2.02,4.84-2.02c1.8,0,3.22.56,4.26,1.67,1.04,1.11,1.57,2.69,1.59,4.74h-4.02c-.01-.92-.16-1.62-.45-2.12-.29-.49-.78-.74-1.45-.74-.75,0-1.28.26-1.6.79-.32.53-.49,1.55-.51,3.07v1.66c0,1.33.07,2.26.2,2.79.13.53.35.92.65,1.16.3.25.73.37,1.28.37Z"/></g></svg>